<svg width="416" height="201" viewBox="0 0 416 201" fill="none" xmlns="http://www.w3.org/2000/svg">
    <g clip-path="url(#clip0)">
        <path d="M86.2777 11H0.72234C0.323412 11 0 11.325 0 11.7259V126.274C0 126.675 0.323412 127 0.72234 127H86.2777C86.6766 127 87 126.675 87 126.274V11.7259C87 11.325 86.6766 11 86.2777 11Z" fill="#E7F5FE"/>
        <path d="M399.278 11H313.722C313.323 11 313 11.325 313 11.7259V126.274C313 126.675 313.323 127 313.722 127H399.278C399.677 127 400 126.675 400 126.274V11.7259C400 11.325 399.677 11 399.278 11Z" fill="#E7F5FE"/>
        <path d="M268.693 112.024H138.482V200.831H268.693V112.024Z" fill="#E7F5FE"/>
        <path d="M275.955 101.636H147.82C147.407 101.637 147.011 101.801 146.72 102.093C146.428 102.385 146.263 102.782 146.263 103.195V189.924C146.263 190.129 146.303 190.332 146.381 190.521C146.46 190.71 146.574 190.882 146.719 191.027C146.863 191.171 147.035 191.286 147.224 191.364C147.413 191.443 147.615 191.483 147.82 191.483H275.955C276.16 191.483 276.362 191.443 276.551 191.364C276.74 191.286 276.912 191.171 277.056 191.027C277.201 190.882 277.316 190.71 277.394 190.521C277.472 190.332 277.512 190.129 277.512 189.924V103.195C277.512 102.782 277.347 102.385 277.056 102.093C276.764 101.801 276.368 101.637 275.955 101.636ZM276.474 189.924C276.475 189.993 276.461 190.06 276.435 190.123C276.409 190.187 276.371 190.244 276.323 190.292C276.275 190.341 276.217 190.379 276.154 190.405C276.091 190.431 276.024 190.444 275.955 190.444H147.82C147.752 190.444 147.684 190.431 147.621 190.405C147.558 190.379 147.501 190.341 147.452 190.292C147.404 190.244 147.366 190.187 147.34 190.123C147.314 190.06 147.301 189.993 147.301 189.924V103.195C147.301 103.057 147.356 102.925 147.453 102.828C147.55 102.73 147.682 102.675 147.82 102.675H275.955C276.093 102.675 276.225 102.73 276.322 102.828C276.419 102.925 276.474 103.057 276.474 103.195V189.924Z" fill="#063E60"/>
        <path d="M210.871 162.919H153.765C153.346 162.919 153.007 163.259 153.007 163.677V168.912C153.007 169.331 153.346 169.67 153.765 169.67H210.871C211.289 169.67 211.628 169.331 211.628 168.912V163.677C211.628 163.259 211.289 162.919 210.871 162.919Z" fill="#063E60"/>
        <path d="M265.06 157.207H246.388C246.183 157.207 245.981 157.247 245.792 157.325C245.603 157.404 245.431 157.519 245.287 157.663C245.142 157.808 245.027 157.98 244.949 158.169C244.871 158.358 244.831 158.561 244.831 158.766V173.306C244.831 173.511 244.871 173.713 244.949 173.902C245.027 174.091 245.142 174.263 245.287 174.408C245.431 174.553 245.603 174.668 245.792 174.746C245.981 174.824 246.183 174.865 246.388 174.865H265.06C265.265 174.865 265.467 174.824 265.656 174.746C265.845 174.668 266.017 174.553 266.161 174.408C266.306 174.263 266.42 174.091 266.499 173.902C266.577 173.713 266.617 173.511 266.617 173.306V158.766C266.617 158.561 266.577 158.358 266.499 158.169C266.42 157.98 266.306 157.808 266.161 157.663C266.017 157.519 265.845 157.404 265.656 157.325C265.467 157.247 265.265 157.207 265.06 157.207ZM265.579 173.306C265.579 173.444 265.524 173.576 265.427 173.673C265.33 173.77 265.198 173.825 265.06 173.825H246.388C246.25 173.825 246.118 173.77 246.021 173.673C245.924 173.576 245.869 173.444 245.869 173.306V158.766C245.868 158.697 245.882 158.63 245.908 158.566C245.934 158.503 245.972 158.446 246.02 158.398C246.068 158.349 246.126 158.311 246.189 158.285C246.252 158.259 246.319 158.246 246.388 158.246H265.06C265.128 158.246 265.196 158.259 265.259 158.285C265.322 158.311 265.379 158.349 265.428 158.398C265.476 158.446 265.514 158.503 265.54 158.566C265.566 158.63 265.579 158.697 265.579 158.766V173.306Z" fill="#063E60"/>
        <path d="M261.331 160.562H250.117C249.698 160.562 249.359 160.902 249.359 161.32V162.44C249.359 162.859 249.698 163.199 250.117 163.199H261.331C261.75 163.199 262.089 162.859 262.089 162.44V161.32C262.089 160.902 261.75 160.562 261.331 160.562Z" fill="#063E60"/>
        <path d="M261.331 164.717H250.117C249.698 164.717 249.359 165.056 249.359 165.475V166.595C249.359 167.014 249.698 167.353 250.117 167.353H261.331C261.75 167.353 262.089 167.014 262.089 166.595V165.475C262.089 165.056 261.75 164.717 261.331 164.717Z" fill="#063E60"/>
        <path d="M261.331 168.871H250.117C249.698 168.871 249.359 169.211 249.359 169.63V170.75C249.359 171.168 249.698 171.508 250.117 171.508H261.331C261.75 171.508 262.089 171.168 262.089 170.75V169.63C262.089 169.211 261.75 168.871 261.331 168.871Z" fill="#063E60"/>
        <path d="M180.782 107.869H155.321C154.903 107.869 154.564 108.209 154.564 108.627V118.536C154.564 118.955 154.903 119.294 155.321 119.294H180.782C181.2 119.294 181.54 118.955 181.54 118.536V108.627C181.54 108.209 181.2 107.869 180.782 107.869Z" fill="#063E60"/>
        <path d="M170.127 113.582C170.127 115.589 169.198 117.217 168.052 117.217C166.906 117.217 165.977 115.589 165.977 113.582C165.977 111.574 168.052 109.946 168.052 109.946C168.052 109.946 170.127 111.574 170.127 113.582Z" fill="#0E9AEF"/>
        <path d="M364.264 61.3759H363.507V146.18H277.512V146.939H364.264V61.3759Z" fill="#063E60"/>
        <path d="M138.482 146.939H51.7296V61.3759H52.4872V146.18H138.482V146.939Z" fill="#063E60"/>
        <path fill-rule="evenodd" clip-rule="evenodd" d="M411.269 14.3391H411.754C411.786 14.3391 411.818 14.3454 411.847 14.3576C411.877 14.3698 411.903 14.3877 411.926 14.4103C411.948 14.4328 411.966 14.4596 411.979 14.4891C411.991 14.5186 411.997 14.5502 411.997 14.5821V18.9568C411.997 19.0212 411.971 19.083 411.926 19.1286C411.88 19.1742 411.819 19.1998 411.754 19.1998H411.269V118.777C411.269 119.472 411.132 120.16 410.866 120.802C410.601 121.445 410.211 122.028 409.72 122.52C409.229 123.011 408.646 123.401 408.005 123.667C407.364 123.933 406.676 124.07 405.982 124.07H321.633C320.938 124.07 320.251 123.933 319.609 123.667C318.968 123.401 318.385 123.011 317.894 122.52C317.403 122.028 317.014 121.445 316.748 120.802C316.483 120.16 316.346 119.472 316.346 118.777V6.14333C316.346 5.44828 316.483 4.76003 316.748 4.11788C317.014 3.47574 317.403 2.89227 317.894 2.40079C318.385 1.90932 318.968 1.51946 319.609 1.25348C320.251 0.987499 320.938 0.850606 321.633 0.850613H400.587V0.24302C400.587 0.178563 400.612 0.116746 400.658 0.0711685C400.703 0.0255907 400.765 -1.52588e-05 400.83 -1.52588e-05H405.199C405.264 -1.52588e-05 405.326 0.0255907 405.371 0.0711685C405.417 0.116746 405.442 0.178563 405.442 0.24302V0.850613H405.982C406.676 0.850606 407.364 0.987499 408.005 1.25348C408.646 1.51946 409.229 1.90932 409.72 2.40079C410.211 2.89227 410.601 3.47574 410.866 4.11788C411.132 4.76003 411.269 5.44828 411.269 6.14333V8.62776H411.633C411.697 8.62776 411.759 8.65337 411.805 8.69895C411.85 8.74452 411.876 8.80634 411.876 8.8708V13.2454C411.876 13.3099 411.85 13.3717 411.805 13.4173C411.759 13.4629 411.697 13.4885 411.633 13.4885H411.269V14.3391ZM321.722 4H407.278C407.677 4 408 4.32498 408 4.72586V119.274C408 119.675 407.677 120 407.278 120H321.722C321.323 120 321 119.675 321 119.274V4.72586C321 4.32498 321.323 4 321.722 4Z" fill="#063E60"/>
        <path d="M368.343 60.8909H354.949C354.53 60.8909 354.191 61.2305 354.191 61.6494V64.5555C354.191 64.9744 354.53 65.314 354.949 65.314H368.343C368.761 65.314 369.1 64.9744 369.1 64.5555V61.6494C369.1 61.2305 368.761 60.8909 368.343 60.8909Z" fill="#063E60"/>
        <path d="M386.368 26.4538H336.924C336.505 26.4538 336.166 26.7934 336.166 27.2123V27.5909C336.166 28.0098 336.505 28.3494 336.924 28.3494H386.368C386.786 28.3494 387.125 28.0098 387.125 27.5909V27.2123C387.125 26.7934 386.786 26.4538 386.368 26.4538Z" fill="#063E60"/>
        <path d="M386.368 32.4566H336.924C336.505 32.4566 336.166 32.7962 336.166 33.2151V33.5937C336.166 34.0126 336.505 34.3522 336.924 34.3522H386.368C386.786 34.3522 387.125 34.0126 387.125 33.5937V33.2151C387.125 32.7962 386.786 32.4566 386.368 32.4566Z" fill="#063E60"/>
        <path d="M386.368 38.4594H336.924C336.505 38.4594 336.166 38.799 336.166 39.2179V39.5965C336.166 40.0154 336.505 40.355 336.924 40.355H386.368C386.786 40.355 387.125 40.0154 387.125 39.5965V39.2179C387.125 38.799 386.786 38.4594 386.368 38.4594Z" fill="#063E60"/>
        <path d="M386.368 44.4622H336.924C336.505 44.4622 336.166 44.8018 336.166 45.2207V45.5993C336.166 46.0182 336.505 46.3578 336.924 46.3578H386.368C386.786 46.3578 387.125 46.0182 387.125 45.5993V45.2207C387.125 44.8018 386.786 44.4622 386.368 44.4622Z" fill="#063E60"/>
        <path d="M386.368 50.465H336.924C336.505 50.465 336.166 50.8046 336.166 51.2235V51.6021C336.166 52.021 336.505 52.3606 336.924 52.3606H386.368C386.786 52.3606 387.125 52.021 387.125 51.6021V51.2235C387.125 50.8046 386.786 50.465 386.368 50.465Z" fill="#063E60"/>
        <path d="M359.842 115.199C368.583 115.199 375.669 108.105 375.669 99.3541C375.669 90.6032 368.583 83.5093 359.842 83.5093C351.1 83.5093 344.014 90.6032 344.014 99.3541C344.014 108.105 351.1 115.199 359.842 115.199Z" fill="#0E9AEF"/>
        <path d="M364.507 111.576C360.582 111.576 356.745 110.41 353.482 108.228C350.219 106.045 347.675 102.942 346.173 99.3121C344.671 95.6822 344.278 91.6879 345.044 87.8343C345.81 83.9808 347.7 80.441 350.475 77.6628C353.25 74.8845 356.786 72.9925 360.635 72.226C364.485 71.4595 368.475 71.8529 372.101 73.3565C375.727 74.86 378.826 77.4063 381.006 80.6732C383.187 83.94 384.351 87.7809 384.351 91.7099C384.345 96.9768 382.252 102.026 378.532 105.75C374.812 109.475 369.768 111.57 364.507 111.576ZM364.507 72.5667C360.725 72.5667 357.028 73.6894 353.883 75.7929C350.738 77.8964 348.287 80.8861 346.84 84.3841C345.393 87.8821 345.014 91.7311 345.752 95.4446C346.49 99.158 348.311 102.569 350.985 105.246C353.66 107.923 357.067 109.747 360.776 110.485C364.486 111.224 368.33 110.845 371.825 109.396C375.319 107.947 378.305 105.493 380.406 102.345C382.508 99.1972 383.629 95.4961 383.629 91.7099C383.623 86.6346 381.607 81.7687 378.022 78.1799C374.437 74.5911 369.577 72.5724 364.507 72.5667Z" fill="#063E60"/>
        <path fill-rule="evenodd" clip-rule="evenodd" d="M98.9229 14.3391H99.4085C99.4404 14.3391 99.4719 14.3454 99.5014 14.3576C99.5308 14.3698 99.5576 14.3877 99.5801 14.4103C99.6027 14.4328 99.6206 14.4596 99.6328 14.4891C99.645 14.5186 99.6513 14.5502 99.6513 14.5821V18.9568C99.6513 19.0212 99.6257 19.083 99.5801 19.1286C99.5346 19.1742 99.4729 19.1998 99.4085 19.1998H98.923V118.777C98.923 119.472 98.7862 120.16 98.5205 120.802C98.2548 121.445 97.8654 122.028 97.3744 122.52C96.8835 123.011 96.3006 123.401 95.6592 123.667C95.0178 123.933 94.3303 124.07 93.636 124.07H9.28695C8.59266 124.07 7.90515 123.933 7.26371 123.667C6.62226 123.401 6.03944 123.011 5.5485 122.52C5.05756 122.028 4.66813 121.445 4.40244 120.802C4.13675 120.16 4 119.472 4 118.777V6.14331C4 5.44826 4.13674 4.76001 4.40244 4.11787C4.66813 3.47572 5.05756 2.89225 5.5485 2.40078C6.03944 1.9093 6.62229 1.51945 7.26373 1.25346C7.90518 0.987484 8.59266 0.850591 9.28695 0.850598H88.241V0.243005C88.241 0.178548 88.2666 0.116731 88.3122 0.0711532C88.3577 0.0255754 88.4194 -2.95118e-05 88.4838 -3.05176e-05H92.8537C92.9181 -2.95118e-05 92.9798 0.0255754 93.0253 0.0711532C93.0709 0.116731 93.0965 0.178548 93.0965 0.243005V0.850598H93.636C94.3303 0.850591 95.0178 0.987484 95.6592 1.25346C96.3006 1.51945 96.8835 1.9093 97.3744 2.40078C97.8654 2.89225 98.2548 3.47572 98.5205 4.11787C98.7862 4.76001 98.9229 5.44826 98.9229 6.14331V8.62775H99.2871C99.3515 8.62775 99.4132 8.65335 99.4587 8.69893C99.5043 8.74451 99.5299 8.80633 99.5299 8.87078V13.2454C99.5299 13.3099 99.5043 13.3717 99.4587 13.4173C99.4132 13.4629 99.3515 13.4885 99.2871 13.4885H98.9229V14.3391ZM8.72234 4H94.2777C94.6766 4 95 4.32498 95 4.72586V119.274C95 119.675 94.6766 120 94.2777 120H8.72234C8.32341 120 8 119.675 8 119.274V4.72586C8 4.32498 8.32341 4 8.72234 4Z" fill="#063E60"/>
        <path d="M55.9969 60.8909H42.6028C42.1844 60.8909 41.8451 61.2305 41.8451 61.6494V64.5555C41.8451 64.9744 42.1844 65.314 42.6028 65.314H55.9969C56.4153 65.314 56.7546 64.9744 56.7546 64.5555V61.6494C56.7546 61.2305 56.4153 60.8909 55.9969 60.8909Z" fill="#063E60"/>
        <path d="M74.0218 26.4538H24.578C24.1595 26.4538 23.8203 26.7934 23.8203 27.2123V27.5909C23.8203 28.0098 24.1595 28.3494 24.578 28.3494H74.0218C74.4402 28.3494 74.7794 28.0098 74.7794 27.5909V27.2123C74.7794 26.7934 74.4402 26.4538 74.0218 26.4538Z" fill="#063E60"/>
        <path d="M74.0218 32.4566H24.578C24.1595 32.4566 23.8203 32.7962 23.8203 33.2151V33.5937C23.8203 34.0126 24.1595 34.3522 24.578 34.3522H74.0218C74.4402 34.3522 74.7794 34.0126 74.7794 33.5937V33.2151C74.7794 32.7962 74.4402 32.4566 74.0218 32.4566Z" fill="#063E60"/>
        <path d="M74.0218 38.4594H24.578C24.1595 38.4594 23.8203 38.799 23.8203 39.2179V39.5965C23.8203 40.0154 24.1595 40.355 24.578 40.355H74.0218C74.4402 40.355 74.7794 40.0154 74.7794 39.5965V39.2179C74.7794 38.799 74.4402 38.4594 74.0218 38.4594Z" fill="#063E60"/>
        <path d="M74.0218 44.4622H24.578C24.1595 44.4622 23.8203 44.8018 23.8203 45.2207V45.5993C23.8203 46.0182 24.1595 46.3578 24.578 46.3578H74.0218C74.4402 46.3578 74.7794 46.0182 74.7794 45.5993V45.2207C74.7794 44.8018 74.4402 44.4622 74.0218 44.4622Z" fill="#063E60"/>
        <path d="M74.0218 50.465H24.578C24.1595 50.465 23.8203 50.8046 23.8203 51.2235V51.6021C23.8203 52.021 24.1595 52.3606 24.578 52.3606H74.0218C74.4402 52.3606 74.7794 52.021 74.7794 51.6021V51.2235C74.7794 50.8046 74.4402 50.465 74.0218 50.465Z" fill="#063E60"/>
        <path d="M47.4959 115.199C56.2371 115.199 63.3233 108.105 63.3233 99.3541C63.3233 90.6032 56.2371 83.5093 47.4959 83.5093C38.7546 83.5093 31.6685 90.6032 31.6685 99.3541C31.6685 108.105 38.7546 115.199 47.4959 115.199Z" fill="#0E9AEF"/>
        <path d="M52.161 111.576C48.2362 111.576 44.3996 110.41 41.1363 108.228C37.873 106.045 35.3296 102.942 33.8276 99.3121C32.3257 95.6822 31.9327 91.6879 32.6984 87.8343C33.4641 83.9808 35.354 80.441 38.1292 77.6628C40.9044 74.8845 44.4403 72.9925 48.2896 72.226C52.139 71.4595 56.1289 71.8529 59.7549 73.3565C63.3809 74.86 66.4801 77.4063 68.6605 80.6732C70.841 83.94 72.0048 87.7809 72.0048 91.7099C71.9989 96.9768 69.9063 102.026 66.1861 105.75C62.466 109.475 57.4221 111.57 52.161 111.576ZM52.161 72.5667C48.379 72.5667 44.6818 73.6894 41.5372 75.7929C38.3926 77.8964 35.9416 80.8861 34.4943 84.3841C33.047 87.8821 32.6683 91.7311 33.4061 95.4446C34.144 99.158 35.9652 102.569 38.6395 105.246C41.3138 107.923 44.7211 109.747 48.4304 110.485C52.1398 111.224 55.9846 110.845 59.4788 109.396C62.9729 107.947 65.9594 105.493 68.0605 102.345C70.1617 99.1972 71.2832 95.4961 71.2832 91.7099C71.2775 86.6346 69.261 81.7687 65.6762 78.1799C62.0913 74.5911 57.2308 72.5724 52.161 72.5667Z" fill="#063E60"/>
        <path d="M89.0491 142.289H78.4419V152.908H89.0491V142.289Z" fill="#E7F5FE"/>
        <path d="M95.4892 146.84H82.609V133.946H95.4892V146.84ZM83.169 146.279H94.9292V134.506H83.169V146.279Z" fill="#063E60"/>
        <path d="M326.576 142.289H315.968V152.908H326.576V142.289Z" fill="#E7F5FE"/>
        <path d="M333.016 146.84H320.135V133.946H333.016V146.84ZM320.695 146.279H332.456V134.506H320.695V146.279Z" fill="#063E60"/>
    </g>
    <defs>
        <clipPath id="clip0">
            <rect width="416" height="201" fill="white"/>
        </clipPath>
    </defs>
</svg>